<?xml version="1.0" standalone="no"?>
<!DOCTYPE svg PUBLIC "-//W3C//DTD SVG 20010904//EN"
 "http://www.w3.org/TR/2001/REC-SVG-20010904/DTD/svg10.dtd">
<svg version="1.0" xmlns="http://www.w3.org/2000/svg"
 width="1024.000000pt" height="1024.000000pt" viewBox="0 0 1024.000000 1024.000000"
 preserveAspectRatio="xMidYMid meet">
<metadata>
Created by potrace 1.14, written by Peter Selinger 2001-2017
</metadata>
<g transform="translate(0.000000,1024.000000) scale(0.100000,-0.100000)"
fill="#000000" stroke="none">
<path d="M0 5120 l0 -5120 4720 0 4720 0 0 80 0 80 320 0 320 0 0 -80 0 -80
80 0 80 0 0 5120 0 5120 -5120 0 -5120 0 0 -5120z m5000 2190 c132 -27 187
-44 293 -95 85 -40 124 -63 236 -138 58 -39 173 -150 232 -223 59 -75 137
-207 178 -302 62 -146 111 -378 111 -524 0 -143 -61 -412 -126 -554 -28 -63
-107 -199 -124 -214 -3 -3 -18 -22 -33 -42 l-28 -38 438 -1 c241 -1 517 -1
613 1 l175 2 35 33 c144 135 208 195 295 280 55 53 124 113 154 133 50 34 59
36 130 37 94 0 157 -28 208 -94 63 -84 63 -78 63 -775 0 -589 -2 -638 -20
-729 -59 -291 -166 -493 -371 -697 -93 -93 -154 -137 -283 -206 -120 -63 -198
-89 -326 -109 -134 -21 -2081 -22 -2235 -1 -358 48 -703 312 -872 666 -101
212 -133 340 -133 535 0 157 15 264 51 369 39 115 113 263 159 321 19 24 50
65 68 91 l34 46 -23 24 -22 24 -589 0 c-388 0 -604 4 -632 11 -50 12 -131 71
-163 117 -12 18 -27 58 -33 89 -23 110 18 214 109 278 l43 30 478 3 479 3 -10
27 c-26 76 -49 232 -49 329 0 287 84 557 246 787 156 223 412 407 664 475 159
43 197 48 340 50 108 0 169 -4 240 -19z"/>
<path d="M4683 6485 c-119 -32 -191 -78 -257 -164 -74 -95 -90 -146 -90 -281
0 -111 1 -117 33 -180 43 -83 150 -192 223 -225 259 -118 548 24 623 306 20
74 19 142 -5 222 -46 162 -155 271 -318 318 -78 22 -137 23 -209 4z m163 -321
c6 -8 16 -14 22 -14 6 0 20 -12 31 -26 26 -32 28 -111 6 -158 -43 -90 -203
-88 -247 4 -49 105 31 231 137 214 22 -3 45 -12 51 -20z"/>
<path d="M5030 4529 c-19 -5 -76 -11 -127 -15 l-91 -7 -8 -85 c-13 -167 10
-272 86 -390 88 -136 207 -221 395 -282 148 -48 241 -60 460 -60 234 0 342 20
514 92 191 81 319 209 376 379 30 88 42 203 26 252 -25 74 -129 137 -205 123
-48 -9 -72 -43 -79 -113 -9 -81 -31 -149 -69 -212 -28 -46 -45 -61 -105 -93
-39 -21 -115 -51 -170 -65 -89 -24 -115 -27 -293 -27 -172 -1 -207 2 -295 23
-120 28 -237 81 -263 119 -66 92 -102 195 -102 292 0 70 -6 78 -50 69z"/>
</g>
</svg>
